<?xml version="1.0" encoding="utf-8"?>
<!-- Generator: Adobe Illustrator 26.0.1, SVG Export Plug-In . SVG Version: 6.00 Build 0)  -->
<svg version="1.1" id="Calque_1" xmlns="http://www.w3.org/2000/svg" xmlns:xlink="http://www.w3.org/1999/xlink" x="0px" y="0px"
	 viewBox="0 0 528.7 144.6" style="enable-background:new 0 0 528.7 144.6;" xml:space="preserve">
<g>
	<g>
		<path d="M0.7,3.4c7.7,0,15.5,2.1,21.7,6.9c5.3,4.1,9,10,10.9,16.3c3.8,12.7,0.8,27.6-9.2,36.7c-6.4,5.9-14.9,8.4-23.4,8.4
			c-1,0-1,1.5,0,1.5c8,0,16-2.2,22.4-7.1c5.6-4.3,9.5-10.4,11.6-17.1c2-6.6,2.3-13.8,0.7-20.6c-1.6-6.8-5.1-13.2-10.2-17.9
			C19.4,5.4,11.9,2.6,4.1,2C3,2,1.9,1.9,0.7,1.9C-0.2,1.9-0.2,3.4,0.7,3.4L0.7,3.4z"/>
	</g>
</g>
<g>
	<g>
		<path d="M6.3,3.4c7.7,0,15.5,2.1,21.7,6.9c5.3,4.1,9,10,10.9,16.3c3.8,12.7,0.8,27.6-9.2,36.7c-6.4,5.9-14.9,8.4-23.4,8.4
			c-1,0-1,1.5,0,1.5c8,0,16-2.2,22.4-7.1c5.6-4.3,9.5-10.4,11.6-17.1c2-6.6,2.3-13.8,0.7-20.6c-1.6-6.8-5.1-13.2-10.2-17.9
			C24.9,5.4,17.4,2.6,9.6,2C8.5,2,7.4,1.9,6.3,1.9C5.3,1.9,5.3,3.4,6.3,3.4L6.3,3.4z"/>
	</g>
</g>
<g>
	<g>
		<path d="M11.8,3.4c7.7,0,15.5,2.1,21.7,6.9c5.3,4.1,9,10,10.9,16.3c3.8,12.7,0.8,27.6-9.2,36.7c-6.4,5.9-14.9,8.4-23.4,8.4
			c-1,0-1,1.5,0,1.5c8,0,16-2.2,22.4-7.1c5.6-4.3,9.5-10.4,11.6-17.1c2-6.6,2.3-13.8,0.7-20.6c-1.6-6.8-5.1-13.2-10.2-17.9
			C30.5,5.4,23,2.6,15.2,2C14.1,2,13,1.9,11.8,1.9C10.9,1.9,10.9,3.4,11.8,3.4L11.8,3.4z"/>
	</g>
</g>
<g>
	<g>
		<path d="M17.4,3.4c7.7,0,15.5,2.1,21.7,6.9c5.3,4.1,9,10,10.9,16.3c3.8,12.7,0.8,27.6-9.2,36.7c-6.4,5.9-14.9,8.4-23.4,8.4
			c-1,0-1,1.5,0,1.5c8,0,16-2.2,22.4-7.1c5.6-4.3,9.5-10.4,11.6-17.1c2-6.6,2.3-13.8,0.7-20.6c-1.6-6.8-5.1-13.2-10.2-17.9
			C36,5.4,28.5,2.6,20.7,2c-1.1-0.1-2.2-0.1-3.4-0.1C16.4,1.9,16.4,3.4,17.4,3.4L17.4,3.4z"/>
	</g>
</g>
<g>
	<g>
		<path d="M22.9,3.4c7.7,0,15.5,2.1,21.7,6.9c5.3,4.1,9,10,10.9,16.3c3.8,12.7,0.8,27.6-9.2,36.7c-6.4,5.9-14.9,8.4-23.4,8.4
			c-1,0-1,1.5,0,1.5c8,0,16-2.2,22.4-7.1c5.6-4.3,9.5-10.4,11.6-17.1c2-6.6,2.3-13.8,0.7-20.6c-1.6-6.8-5.1-13.2-10.2-17.9
			C41.6,5.4,34.1,2.6,26.3,2c-1.1-0.1-2.2-0.1-3.4-0.1C22,1.9,22,3.4,22.9,3.4L22.9,3.4z"/>
	</g>
</g>
<g>
	<g>
		<path d="M28.5,3.4c7.7,0,15.5,2.1,21.7,6.9c5.3,4.1,9,10,10.9,16.3c3.8,12.7,0.8,27.6-9.2,36.7c-6.4,5.9-14.9,8.4-23.4,8.4
			c-1,0-1,1.5,0,1.5c8,0,16-2.2,22.4-7.1c5.6-4.3,9.5-10.4,11.6-17.1c2-6.6,2.3-13.8,0.7-20.6c-1.6-6.8-5.1-13.2-10.2-17.9
			C47.1,5.4,39.6,2.6,31.8,2c-1.1-0.1-2.2-0.1-3.4-0.1C27.5,1.9,27.5,3.4,28.5,3.4L28.5,3.4z"/>
	</g>
</g>
<g>
	<g>
		<path d="M34,3.4c7.7,0,15.5,2.1,21.7,6.9c5.3,4.1,9,10,10.9,16.3c3.8,12.7,0.8,27.6-9.2,36.7c-6.4,5.9-14.9,8.4-23.4,8.4
			c-1,0-1,1.5,0,1.5c8,0,16-2.2,22.4-7.1C62,61.9,66,55.8,68,49.2c2-6.6,2.3-13.8,0.7-20.6c-1.6-6.8-5.1-13.2-10.2-17.9
			C52.7,5.4,45.2,2.6,37.4,2C36.3,2,35.2,1.9,34,1.9C33.1,1.9,33.1,3.4,34,3.4L34,3.4z"/>
	</g>
</g>
<g>
	<g>
		<path d="M71.8,3.4c7.7,0,15.5,2.1,21.7,6.9c5.3,4.1,9,10,10.9,16.3c3.8,12.7,0.8,27.6-9.2,36.7c-6.4,5.9-14.9,8.4-23.4,8.4
			c-1,0-1,1.5,0,1.5c8,0,16-2.2,22.4-7.1c5.6-4.3,9.5-10.4,11.6-17.1c2-6.6,2.3-13.8,0.7-20.6c-1.6-6.8-5.1-13.2-10.2-17.9
			C90.4,5.4,82.9,2.6,75.1,2C74,2,72.9,1.9,71.8,1.9C70.8,1.9,70.8,3.4,71.8,3.4L71.8,3.4z"/>
	</g>
</g>
<g>
	<g>
		<path d="M77.3,3.4c7.7,0,15.5,2.1,21.7,6.9c5.3,4.1,9,10,10.9,16.3c3.8,12.7,0.8,27.6-9.2,36.7c-6.4,5.9-14.9,8.4-23.4,8.4
			c-1,0-1,1.5,0,1.5c8,0,16-2.2,22.4-7.1c5.6-4.3,9.5-10.4,11.6-17.1c2-6.6,2.3-13.8,0.7-20.6c-1.6-6.8-5.1-13.2-10.2-17.9
			C96,5.4,88.5,2.6,80.7,2c-1.1-0.1-2.2-0.1-3.4-0.1C76.4,1.9,76.4,3.4,77.3,3.4L77.3,3.4z"/>
	</g>
</g>
<g>
	<g>
		<path d="M82.9,3.4c7.7,0,15.5,2.1,21.7,6.9c5.3,4.1,9,10,10.9,16.3c3.8,12.7,0.8,27.6-9.2,36.7c-6.4,5.9-14.9,8.4-23.4,8.4
			c-1,0-1,1.5,0,1.5c8,0,16-2.2,22.4-7.1c5.6-4.3,9.5-10.4,11.6-17.1c2-6.6,2.3-13.8,0.7-20.6c-1.6-6.8-5.1-13.2-10.2-17.9
			C101.5,5.4,94,2.6,86.2,2C85.1,2,84,1.9,82.9,1.9C81.9,1.9,81.9,3.4,82.9,3.4L82.9,3.4z"/>
	</g>
</g>
<g>
	<g>
		<path d="M88.4,3.4c7.7,0,15.5,2.1,21.7,6.9c5.3,4.1,9,10,10.9,16.3c3.8,12.7,0.8,27.6-9.2,36.7c-6.4,5.9-14.9,8.4-23.4,8.4
			c-1,0-1,1.5,0,1.5c8,0,16-2.2,22.4-7.1c5.6-4.3,9.5-10.4,11.6-17.1c2-6.6,2.3-13.8,0.7-20.6c-1.6-6.8-5.1-13.2-10.2-17.9
			C107.1,5.4,99.6,2.6,91.8,2c-1.1-0.1-2.2-0.1-3.4-0.1C87.5,1.9,87.5,3.4,88.4,3.4L88.4,3.4z"/>
	</g>
</g>
<g>
	<g>
		<path d="M94,3.4c7.7,0,15.5,2.1,21.7,6.9c5.3,4.1,9,10,10.9,16.3c3.8,12.7,0.8,27.6-9.2,36.7c-6.4,5.9-14.9,8.4-23.4,8.4
			c-1,0-1,1.5,0,1.5c8,0,16-2.2,22.4-7.1c5.6-4.3,9.5-10.4,11.6-17.1c2-6.6,2.3-13.8,0.7-20.6c-1.6-6.8-5.1-13.2-10.2-17.9
			c-5.8-5.3-13.3-8.1-21.1-8.7C96.2,2,95.1,1.9,94,1.9C93,1.9,93,3.4,94,3.4L94,3.4z"/>
	</g>
</g>
<g>
	<g>
		<path d="M99.5,3.4c7.7,0,15.5,2.1,21.7,6.9c5.3,4.1,9,10,10.9,16.3c3.8,12.7,0.8,27.6-9.2,36.7c-6.4,5.9-14.9,8.4-23.4,8.4
			c-1,0-1,1.5,0,1.5c8,0,16-2.2,22.4-7.1c5.6-4.3,9.5-10.4,11.6-17.1c2-6.6,2.3-13.8,0.7-20.6c-1.6-6.8-5.1-13.2-10.2-17.9
			c-5.8-5.3-13.3-8.1-21.1-8.7c-1.1-0.1-2.2-0.1-3.4-0.1C98.6,1.9,98.6,3.4,99.5,3.4L99.5,3.4z"/>
	</g>
</g>
<g>
	<g>
		<path d="M105.1,3.4c7.7,0,15.5,2.1,21.7,6.9c5.3,4.1,9,10,10.9,16.3c3.8,12.7,0.8,27.6-9.2,36.7c-6.4,5.9-14.9,8.4-23.4,8.4
			c-1,0-1,1.5,0,1.5c8,0,16-2.2,22.4-7.1c5.6-4.3,9.5-10.4,11.6-17.1c2-6.6,2.3-13.8,0.7-20.6c-1.6-6.8-5.1-13.2-10.2-17.9
			c-5.8-5.3-13.3-8.1-21.1-8.7c-1.1-0.1-2.2-0.1-3.4-0.1C104.1,1.9,104.1,3.4,105.1,3.4L105.1,3.4z"/>
	</g>
</g>
<g>
	<g>
		<path d="M0.7,74.5c7.7,0,15.5,2.1,21.7,6.9c5.3,4.1,9,10,10.9,16.3c3.8,12.7,0.8,27.6-9.2,36.7c-6.4,5.9-14.9,8.4-23.4,8.4
			c-1,0-1,1.5,0,1.5c8,0,16-2.2,22.4-7.1c5.6-4.3,9.5-10.4,11.6-17.1c2-6.6,2.3-13.8,0.7-20.6c-1.6-6.8-5.1-13.2-10.2-17.9
			c-5.8-5.3-13.3-8.1-21.1-8.7C3,73,1.9,73,0.7,73C-0.2,73-0.2,74.5,0.7,74.5L0.7,74.5z"/>
	</g>
</g>
<g>
	<g>
		<path d="M6.3,74.5c7.7,0,15.5,2.1,21.7,6.9c5.3,4.1,9,10,10.9,16.3c3.8,12.7,0.8,27.6-9.2,36.7c-6.4,5.9-14.9,8.4-23.4,8.4
			c-1,0-1,1.5,0,1.5c8,0,16-2.2,22.4-7.1c5.6-4.3,9.5-10.4,11.6-17.1c2-6.6,2.3-13.8,0.7-20.6c-1.6-6.8-5.1-13.2-10.2-17.9
			c-5.8-5.3-13.3-8.1-21.1-8.7C8.5,73,7.4,73,6.3,73C5.3,73,5.3,74.5,6.3,74.5L6.3,74.5z"/>
	</g>
</g>
<g>
	<g>
		<path d="M11.8,74.5c7.7,0,15.5,2.1,21.7,6.9c5.3,4.1,9,10,10.9,16.3c3.8,12.7,0.8,27.6-9.2,36.7c-6.4,5.9-14.9,8.4-23.4,8.4
			c-1,0-1,1.5,0,1.5c8,0,16-2.2,22.4-7.1c5.6-4.3,9.5-10.4,11.6-17.1c2-6.6,2.3-13.8,0.7-20.6c-1.6-6.8-5.1-13.2-10.2-17.9
			c-5.8-5.3-13.3-8.1-21.1-8.7C14.1,73,13,73,11.8,73C10.9,73,10.9,74.5,11.8,74.5L11.8,74.5z"/>
	</g>
</g>
<g>
	<g>
		<path d="M17.4,74.5c7.7,0,15.5,2.1,21.7,6.9c5.3,4.1,9,10,10.9,16.3c3.8,12.7,0.8,27.6-9.2,36.7c-6.4,5.9-14.9,8.4-23.4,8.4
			c-1,0-1,1.5,0,1.5c8,0,16-2.2,22.4-7.1c5.6-4.3,9.5-10.4,11.6-17.1c2-6.6,2.3-13.8,0.7-20.6c-1.6-6.8-5.1-13.2-10.2-17.9
			c-5.8-5.3-13.3-8.1-21.1-8.7C19.6,73,18.5,73,17.4,73C16.4,73,16.4,74.5,17.4,74.5L17.4,74.5z"/>
	</g>
</g>
<g>
	<g>
		<path d="M22.9,74.5c7.7,0,15.5,2.1,21.7,6.9c5.3,4.1,9,10,10.9,16.3c3.8,12.7,0.8,27.6-9.2,36.7c-6.4,5.9-14.9,8.4-23.4,8.4
			c-1,0-1,1.5,0,1.5c8,0,16-2.2,22.4-7.1c5.6-4.3,9.5-10.4,11.6-17.1c2-6.6,2.3-13.8,0.7-20.6c-1.6-6.8-5.1-13.2-10.2-17.9
			c-5.8-5.3-13.3-8.1-21.1-8.7C25.2,73,24.1,73,22.9,73C22,73,22,74.5,22.9,74.5L22.9,74.5z"/>
	</g>
</g>
<g>
	<g>
		<path d="M28.5,74.5c7.7,0,15.5,2.1,21.7,6.9c5.3,4.1,9,10,10.9,16.3c3.8,12.7,0.8,27.6-9.2,36.7c-6.4,5.9-14.9,8.4-23.4,8.4
			c-1,0-1,1.5,0,1.5c8,0,16-2.2,22.4-7.1c5.6-4.3,9.5-10.4,11.6-17.1c2-6.6,2.3-13.8,0.7-20.6c-1.6-6.8-5.1-13.2-10.2-17.9
			c-5.8-5.3-13.3-8.1-21.1-8.7C30.7,73,29.6,73,28.5,73C27.5,73,27.5,74.5,28.5,74.5L28.5,74.5z"/>
	</g>
</g>
<g>
	<g>
		<path d="M34,74.5c7.7,0,15.5,2.1,21.7,6.9c5.3,4.1,9,10,10.9,16.3c3.8,12.7,0.8,27.6-9.2,36.7c-6.4,5.9-14.9,8.4-23.4,8.4
			c-1,0-1,1.5,0,1.5c8,0,16-2.2,22.4-7.1C62,133,66,126.9,68,120.2c2-6.6,2.3-13.8,0.7-20.6c-1.6-6.8-5.1-13.2-10.2-17.9
			c-5.8-5.3-13.3-8.1-21.1-8.7C36.3,73,35.2,73,34,73C33.1,73,33.1,74.5,34,74.5L34,74.5z"/>
	</g>
</g>
<g>
	<g>
		<path d="M72.8,72.1c0,8.1,0,16.2,0,24.2c0,12.9,0,25.7,0,38.6c0,2.9,0,5.8,0,8.8c0,1,1.5,1,1.5,0c0-8.1,0-16.2,0-24.2
			c0-12.9,0-25.7,0-38.6c0-2.9,0-5.8,0-8.8C74.3,71.1,72.8,71.1,72.8,72.1L72.8,72.1z"/>
	</g>
</g>
<g>
	<g>
		<path d="M77.8,72.1c0,8.1,0,16.2,0,24.2c0,12.9,0,25.7,0,38.6c0,2.9,0,5.8,0,8.8c0,1,1.5,1,1.5,0c0-8.1,0-16.2,0-24.2
			c0-12.9,0-25.7,0-38.6c0-2.9,0-5.8,0-8.8C79.3,71.1,77.8,71.1,77.8,72.1L77.8,72.1z"/>
	</g>
</g>
<g>
	<g>
		<path d="M82.8,72.1c0,8.1,0,16.2,0,24.2c0,12.9,0,25.7,0,38.6c0,2.9,0,5.8,0,8.8c0,1,1.5,1,1.5,0c0-8.1,0-16.2,0-24.2
			c0-12.9,0-25.7,0-38.6c0-2.9,0-5.8,0-8.8C84.3,71.1,82.8,71.1,82.8,72.1L82.8,72.1z"/>
	</g>
</g>
<g>
	<g>
		<path d="M87.8,72.1c0,8.1,0,16.2,0,24.2c0,12.9,0,25.7,0,38.6c0,2.9,0,5.8,0,8.8c0,1,1.5,1,1.5,0c0-8.1,0-16.2,0-24.2
			c0-12.9,0-25.7,0-38.6c0-2.9,0-5.8,0-8.8C89.3,71.1,87.8,71.1,87.8,72.1L87.8,72.1z"/>
	</g>
</g>
<g>
	<g>
		<path d="M89.4,74.6c4.4,7.8,8.8,15.6,13.2,23.4c7,12.4,14,24.8,21.1,37.2c1.6,2.8,3.2,5.6,4.8,8.4c0.5,0.8,1.8,0.1,1.3-0.8
			c-4.4-7.8-8.8-15.6-13.2-23.4c-7-12.4-14-24.8-21.1-37.2c-1.6-2.8-3.2-5.6-4.8-8.4C90.2,73,88.9,73.8,89.4,74.6L89.4,74.6z"/>
	</g>
</g>
<g>
	<g>
		<path d="M94,73c4.5,8,9.1,16,13.6,24c7.2,12.7,14.3,25.3,21.5,38c1.6,2.9,3.3,5.8,4.9,8.7c0.5,0.8,1.8,0.1,1.3-0.8
			c-4.5-8-9.1-16-13.6-24c-7.2-12.7-14.3-25.3-21.5-38c-1.6-2.9-3.3-5.8-4.9-8.7C94.9,71.4,93.6,72.1,94,73L94,73z"/>
	</g>
</g>
<g>
	<g>
		<path d="M100.2,73.4c4.5,7.9,8.9,15.9,13.4,23.8c7.1,12.6,14.2,25.2,21.3,37.9c1.6,2.9,3.2,5.8,4.9,8.6c0.5,0.8,1.8,0.1,1.3-0.8
			c-4.5-7.9-8.9-15.9-13.4-23.8c-7.1-12.6-14.2-25.2-21.3-37.9c-1.6-2.9-3.2-5.8-4.9-8.6C101,71.8,99.7,72.5,100.2,73.4L100.2,73.4z
			"/>
	</g>
</g>
<g>
	<g>
		<path d="M212,9.6c0,4.5,0,8.9,0,13.4c0,10.7,0,21.4,0,32.1c0,12.8,0,25.6,0,38.4c0,11.1,0,22.2,0,33.3c0,5.3,0,10.6,0,15.8
			c0,0.2,0,0.4,0,0.7c0.2-0.2,0.5-0.5,0.8-0.8c-4.7,0-9.4,0-14.1,0c-8.3,0-16.7,0-25,0c-2.8,0-5.7,0-8.5,0c-2.6,0-5.1-0.1-7.5-0.9
			c-5.7-1.9-10-7-11.1-12.9c-0.3-1.4-0.3-2.9-0.3-4.3c0-4,0-8.1,0-12.1c0-7.1,0-14.2,0-21.2c0-8.5,0-17.1,0-25.6
			c0-8.4,0-16.8,0-25.2c0-6.7,0-13.4,0-20.1c0-3.4,0.1-6.8,0-10.2c0-0.2,0-0.3,0-0.5c0-1-1.5-1-1.5,0c0,2.4,0,4.8,0,7.2
			c0,6.1,0,12.3,0,18.4c0,8.3,0,16.6,0,24.9c0,8.7,0,17.4,0,26.1c0,7.6,0,15.1,0,22.7c0,4.8,0,9.5,0,14.3c0,0.8,0,1.7,0,2.5
			c0,4.8,1.8,9.3,5.1,12.8c3.5,3.6,8.3,5.6,13.3,5.6c1.8,0,3.5,0,5.3,0c7.9,0,15.9,0,23.8,0c6.5,0,13,0,19.4,0c0.4,0,0.7,0,1.1,0
			c0.4,0,0.8-0.3,0.8-0.8c0-4.5,0-8.9,0-13.4c0-10.6,0-21.2,0-31.8c0-12.8,0-25.6,0-38.4c0-11.2,0-22.3,0-33.5c0-3.7,0-7.3,0-11
			c0-1.7,0.1-3.5,0-5.3c0-0.1,0-0.1,0-0.2C213.5,8.7,212,8.7,212,9.6L212,9.6z"/>
	</g>
</g>
<g>
	<g>
		<path d="M222,9.6c0,4.5,0,8.9,0,13.4c0,10.7,0,21.4,0,32.1c0,12.8,0,25.6,0,38.4c0,11.1,0,22.2,0,33.3c0,5.3,0,10.6,0,15.8
			c0,0.2,0,0.4,0,0.7c0.2-0.2,0.5-0.5,0.8-0.8c-4.7,0-9.4,0-14.1,0c-8.3,0-16.7,0-25,0c-2.8,0-5.7,0-8.5,0c-2.6,0-5.1-0.1-7.5-0.9
			c-5.7-1.9-10-7-11.1-12.9c-0.3-1.4-0.3-2.9-0.3-4.3c0-4,0-8.1,0-12.1c0-7.1,0-14.2,0-21.2c0-8.5,0-17.1,0-25.6
			c0-8.4,0-16.8,0-25.2c0-6.7,0-13.4,0-20.1c0-3.4,0.1-6.8,0-10.2c0-0.2,0-0.3,0-0.5c0-1-1.5-1-1.5,0c0,2.4,0,4.8,0,7.2
			c0,6.1,0,12.3,0,18.4c0,8.3,0,16.6,0,24.9c0,8.7,0,17.4,0,26.1c0,7.6,0,15.1,0,22.7c0,4.8,0,9.5,0,14.3c0,0.8,0,1.7,0,2.5
			c0,4.8,1.8,9.3,5.1,12.8c3.5,3.6,8.3,5.6,13.3,5.6c1.8,0,3.5,0,5.3,0c7.9,0,15.9,0,23.8,0c6.5,0,13,0,19.4,0c0.4,0,0.7,0,1.1,0
			c0.4,0,0.8-0.3,0.8-0.8c0-4.5,0-8.9,0-13.4c0-10.6,0-21.2,0-31.8c0-12.8,0-25.6,0-38.4c0-11.2,0-22.3,0-33.5c0-3.7,0-7.3,0-11
			c0-1.7,0.1-3.5,0-5.3c0-0.1,0-0.1,0-0.2C223.5,8.7,222,8.7,222,9.6L222,9.6z"/>
	</g>
</g>
<g>
	<g>
		<path d="M218,9.6c0,4.4,0,8.8,0,13.2c0,10.6,0,21.2,0,31.9c0,12.8,0,25.6,0,38.4c0,11.1,0,22.2,0,33.3c0,3.6,0,7.3,0,10.9
			c0,1.7-0.1,3.5,0,5.2c0,0.1,0,0.1,0,0.2c0,1,1.5,1,1.5,0c0-4.4,0-8.8,0-13.2c0-10.6,0-21.2,0-31.9c0-12.8,0-25.6,0-38.4
			c0-11.1,0-22.2,0-33.3c0-3.6,0-7.3,0-10.9c0-1.7,0.1-3.5,0-5.2c0-0.1,0-0.1,0-0.2C219.5,8.7,218,8.7,218,9.6L218,9.6z"/>
	</g>
</g>
<g>
	<g>
		<path d="M168.1,142.6c-9-0.1-17.6-7.2-17.8-16.5c0-1.3,0-2.7,0-4c0.1-8.3,0.1-16.5,0.2-24.8c0.1-12.2,0.2-24.3,0.3-36.5
			c0.1-11.3,0.2-22.6,0.3-33.9c0-3.9,0.1-7.7,0.1-11.6c0-1.8,0.1-3.7,0-5.5c0-0.1,0-0.2,0-0.3c0-1-1.5-1-1.5,0
			c0,4.8-0.1,9.6-0.1,14.5c-0.1,11.1-0.2,22.3-0.3,33.4c-0.1,12.4-0.2,24.9-0.3,37.3c-0.1,8.8-0.2,17.6-0.2,26.4c0,1.5,0,3,0,4.5
			c0,7.9,5.7,14.7,13,17.3c2,0.7,4.2,1.1,6.3,1.1C169.1,144.1,169.1,142.6,168.1,142.6L168.1,142.6z"/>
	</g>
</g>
<g>
	<g>
		<path d="M164.6,141.8c5.4,0,10.8,0,16.3,0c8.6,0,17.3,0,25.9,0c2,0,4,0,6,0c1,0,1-1.5,0-1.5c-5.4,0-10.8,0-16.3,0
			c-8.6,0-17.3,0-25.9,0c-2,0-4,0-6,0C163.6,140.3,163.6,141.8,164.6,141.8L164.6,141.8z"/>
	</g>
</g>
<g>
	<g>
		<path d="M161,139.2c5.8,0,11.7,0,17.5,0c9.3,0,18.6,0,27.8,0c2.1,0,4.3,0,6.4,0c1,0,1-1.5,0-1.5c-5.8,0-11.7,0-17.5,0
			c-9.3,0-18.6,0-27.8,0c-2.1,0-4.3,0-6.4,0C160,137.7,160,139.2,161,139.2L161,139.2z"/>
	</g>
</g>
<g>
	<g>
		<path d="M158.8,136.8c6.1,0,12.2,0,18.2,0c9.7,0,19.4,0,29.1,0c2.2,0,4.4,0,6.6,0c1,0,1-1.5,0-1.5c-6.1,0-12.2,0-18.2,0
			c-9.7,0-19.4,0-29.1,0c-2.2,0-4.4,0-6.6,0C157.9,135.3,157.9,136.8,158.8,136.8L158.8,136.8z"/>
	</g>
</g>
<g>
	<g>
		<path d="M157.8,134.2c6.2,0,12.4,0,18.6,0c9.8,0,19.7,0,29.5,0c2.3,0,4.5,0,6.8,0c1,0,1-1.5,0-1.5c-6.2,0-12.4,0-18.6,0
			c-9.8,0-19.7,0-29.5,0c-2.3,0-4.5,0-6.8,0C156.9,132.7,156.9,134.2,157.8,134.2L157.8,134.2z"/>
	</g>
</g>
<g>
	<g>
		<path d="M260.1,0.2c-8.1,0-16.2,2.2-22.8,7.2c-5.7,4.4-9.7,10.6-11.8,17.4c-2.1,6.8-2.3,14.1-0.7,21c1.6,6.9,5.2,13.3,10.4,18.1
			c5.9,5.4,13.5,8.2,21.4,8.8c1.2,0.1,2.3,0.1,3.5,0.1c1,0,1-1.5,0-1.5c-7.8,0-15.7-2.1-21.9-6.9c-5.4-4.2-9.2-10.1-11.2-16.6
			c-3.9-12.9-0.8-28.2,9.3-37.5c6.5-6,15.2-8.6,23.9-8.6C261.1,1.7,261.1,0.2,260.1,0.2L260.1,0.2z"/>
	</g>
</g>
<g>
	<g>
		<path d="M264.5,0.2c-8.1,0-16.2,2.2-22.8,7.2c-5.7,4.4-9.7,10.6-11.8,17.4c-2.1,6.8-2.3,14.1-0.7,21c1.6,6.9,5.2,13.3,10.4,18.1
			c5.9,5.4,13.5,8.2,21.4,8.8c1.2,0.1,2.3,0.1,3.5,0.1c1,0,1-1.5,0-1.5c-7.8,0-15.7-2.1-21.9-6.9c-5.4-4.2-9.2-10.1-11.2-16.6
			c-3.9-12.9-0.8-28.2,9.3-37.5c6.5-6,15.2-8.6,23.9-8.6C265.5,1.7,265.5,0.2,264.5,0.2L264.5,0.2z"/>
	</g>
</g>
<g>
	<g>
		<path d="M268.8,0.2c-8.1,0-16.2,2.2-22.8,7.2c-5.7,4.4-9.7,10.6-11.8,17.4c-2.1,6.8-2.3,14.1-0.7,21c1.6,6.9,5.2,13.3,10.4,18.1
			c5.9,5.4,13.5,8.2,21.4,8.8c1.2,0.1,2.3,0.1,3.5,0.1c1,0,1-1.5,0-1.5c-7.8,0-15.7-2.1-21.9-6.9c-5.4-4.2-9.2-10.1-11.2-16.6
			c-3.9-12.9-0.8-28.2,9.3-37.5c6.5-6,15.2-8.6,23.9-8.6C269.8,1.7,269.8,0.2,268.8,0.2L268.8,0.2z"/>
	</g>
</g>
<g>
	<g>
		<path d="M273.2,0.2c-8.1,0-16.2,2.2-22.8,7.2c-5.7,4.4-9.7,10.6-11.8,17.4c-2.1,6.8-2.3,14.1-0.7,21c1.6,6.9,5.2,13.3,10.4,18.1
			c5.9,5.4,13.5,8.2,21.4,8.8c1.2,0.1,2.3,0.1,3.5,0.1c1,0,1-1.5,0-1.5c-7.8,0-15.7-2.1-21.9-6.9c-5.4-4.2-9.2-10.1-11.2-16.6
			c-3.9-12.9-0.8-28.2,9.3-37.5c6.5-6,15.2-8.6,23.9-8.6C274.1,1.7,274.1,0.2,273.2,0.2L273.2,0.2z"/>
	</g>
</g>
<g>
	<g>
		<path d="M277.5,0.2c-8.1,0-16.2,2.2-22.8,7.2c-5.7,4.4-9.7,10.6-11.8,17.4c-2.1,6.8-2.3,14.1-0.7,21c1.6,6.9,5.2,13.3,10.4,18.1
			c5.9,5.4,13.5,8.2,21.4,8.8c1.2,0.1,2.3,0.1,3.5,0.1c1,0,1-1.5,0-1.5c-7.8,0-15.7-2.1-21.9-6.9c-5.4-4.2-9.2-10.1-11.2-16.6
			c-3.9-12.9-0.8-28.2,9.3-37.5c6.5-6,15.2-8.6,23.9-8.6C278.5,1.7,278.5,0.2,277.5,0.2L277.5,0.2z"/>
	</g>
</g>
<g>
	<g>
		<path d="M259.8,73.3c7.8,0,15.7,2.1,21.9,6.9c5.4,4.2,9.2,10.1,11.2,16.6c3.9,12.9,0.8,28.2-9.3,37.5c-6.5,6-15.2,8.6-23.9,8.6
			c-1,0-1,1.5,0,1.5c8.1,0,16.2-2.2,22.8-7.2c5.7-4.4,9.7-10.6,11.8-17.4c2.1-6.8,2.3-14.1,0.7-21c-1.6-6.9-5.2-13.3-10.4-18.1
			c-5.9-5.4-13.5-8.2-21.4-8.8c-1.2-0.1-2.3-0.1-3.5-0.1C258.9,71.8,258.8,73.3,259.8,73.3L259.8,73.3z"/>
	</g>
</g>
<g>
	<g>
		<path d="M264.2,73.3c7.8,0,15.7,2.1,21.9,6.9c5.4,4.2,9.2,10.1,11.2,16.6c3.9,12.9,0.8,28.2-9.3,37.5c-6.5,6-15.2,8.6-23.9,8.6
			c-1,0-1,1.5,0,1.5c8.1,0,16.2-2.2,22.8-7.2c5.7-4.4,9.7-10.6,11.8-17.4c2.1-6.8,2.3-14.1,0.7-21c-1.6-6.9-5.2-13.3-10.4-18.1
			c-5.9-5.4-13.5-8.2-21.4-8.8c-1.2-0.1-2.3-0.1-3.5-0.1C263.2,71.8,263.2,73.3,264.2,73.3L264.2,73.3z"/>
	</g>
</g>
<g>
	<g>
		<path d="M268.5,73.3c7.8,0,15.7,2.1,21.9,6.9c5.4,4.2,9.2,10.1,11.2,16.6c3.9,12.9,0.8,28.2-9.3,37.5c-6.5,6-15.2,8.6-23.9,8.6
			c-1,0-1,1.5,0,1.5c8.1,0,16.2-2.2,22.8-7.2c5.7-4.4,9.7-10.6,11.8-17.4c2.1-6.8,2.3-14.1,0.7-21c-1.6-6.9-5.2-13.3-10.4-18.1
			c-5.9-5.4-13.5-8.2-21.4-8.8c-1.2-0.1-2.3-0.1-3.5-0.1C267.5,71.8,267.5,73.3,268.5,73.3L268.5,73.3z"/>
	</g>
</g>
<g>
	<g>
		<path d="M272.8,73.3c7.8,0,15.7,2.1,21.9,6.9c5.4,4.2,9.2,10.1,11.2,16.6c3.9,12.9,0.8,28.2-9.3,37.5c-6.5,6-15.2,8.6-23.9,8.6
			c-1,0-1,1.5,0,1.5c8.1,0,16.2-2.2,22.8-7.2c5.7-4.4,9.7-10.6,11.8-17.4c2.1-6.8,2.3-14.1,0.7-21c-1.6-6.9-5.2-13.3-10.4-18.1
			c-5.9-5.4-13.5-8.2-21.4-8.8c-1.2-0.1-2.3-0.1-3.5-0.1C271.9,71.8,271.9,73.3,272.8,73.3L272.8,73.3z"/>
	</g>
</g>
<g>
	<g>
		<path d="M277.2,73.3c7.8,0,15.7,2.1,21.9,6.9c5.4,4.2,9.2,10.1,11.2,16.6c3.9,12.9,0.8,28.2-9.3,37.5c-6.5,6-15.2,8.6-23.9,8.6
			c-1,0-1,1.5,0,1.5c8.1,0,16.2-2.2,22.8-7.2c5.7-4.4,9.7-10.6,11.8-17.4c2.1-6.8,2.3-14.1,0.7-21c-1.6-6.9-5.2-13.3-10.4-18.1
			c-5.9-5.4-13.5-8.2-21.4-8.8c-1.2-0.1-2.3-0.1-3.5-0.1C276.2,71.8,276.2,73.3,277.2,73.3L277.2,73.3z"/>
	</g>
</g>
<g>
	<g>
		<path d="M323.2,0.2c-8.1,0-16.2,2.2-22.8,7.2c-5.7,4.4-9.7,10.6-11.8,17.4c-2.1,6.8-2.3,14.1-0.7,21c1.6,6.9,5.2,13.3,10.4,18.1
			c5.9,5.4,13.5,8.2,21.4,8.8c1.2,0.1,2.3,0.1,3.5,0.1c1,0,1-1.5,0-1.5c-7.8,0-15.7-2.1-21.9-6.9c-5.4-4.2-9.2-10.1-11.2-16.6
			c-3.9-12.9-0.8-28.2,9.3-37.5c6.5-6,15.2-8.6,23.9-8.6C324.2,1.7,324.2,0.2,323.2,0.2L323.2,0.2z"/>
	</g>
</g>
<g>
	<g>
		<path d="M327.5,0.2c-8.1,0-16.2,2.2-22.8,7.2c-5.7,4.4-9.7,10.6-11.8,17.4c-2.1,6.8-2.3,14.1-0.7,21c1.6,6.9,5.2,13.3,10.4,18.1
			c5.9,5.4,13.5,8.2,21.4,8.8c1.2,0.1,2.3,0.1,3.5,0.1c1,0,1-1.5,0-1.5c-7.8,0-15.7-2.1-21.9-6.9c-5.4-4.2-9.2-10.1-11.2-16.6
			c-3.9-12.9-0.8-28.2,9.3-37.5c6.5-6,15.2-8.6,23.9-8.6C328.5,1.7,328.5,0.2,327.5,0.2L327.5,0.2z"/>
	</g>
</g>
<g>
	<g>
		<path d="M331.9,0.2c-8.1,0-16.2,2.2-22.8,7.2c-5.7,4.4-9.7,10.6-11.8,17.4c-2.1,6.8-2.3,14.1-0.7,21c1.6,6.9,5.2,13.3,10.4,18.1
			c5.9,5.4,13.5,8.2,21.4,8.8c1.2,0.1,2.3,0.1,3.5,0.1c1,0,1-1.5,0-1.5c-7.8,0-15.7-2.1-21.9-6.9c-5.4-4.2-9.2-10.1-11.2-16.6
			c-3.9-12.9-0.8-28.2,9.3-37.5c6.5-6,15.2-8.6,23.9-8.6C332.8,1.7,332.8,0.2,331.9,0.2L331.9,0.2z"/>
	</g>
</g>
<g>
	<g>
		<path d="M336.2,0.2c-8.1,0-16.2,2.2-22.8,7.2c-5.7,4.4-9.7,10.6-11.8,17.4c-2.1,6.8-2.3,14.1-0.7,21c1.6,6.9,5.2,13.3,10.4,18.1
			c5.9,5.4,13.5,8.2,21.4,8.8c1.2,0.1,2.3,0.1,3.5,0.1c1,0,1-1.5,0-1.5c-7.8,0-15.7-2.1-21.9-6.9c-5.4-4.2-9.2-10.1-11.2-16.6
			c-3.9-12.9-0.8-28.2,9.3-37.5c6.5-6,15.2-8.6,23.9-8.6C337.2,1.7,337.2,0.2,336.2,0.2L336.2,0.2z"/>
	</g>
</g>
<g>
	<g>
		<path d="M340.6,0.2c-8.1,0-16.2,2.2-22.8,7.2c-5.7,4.4-9.7,10.6-11.8,17.4c-2.1,6.8-2.3,14.1-0.7,21c1.6,6.9,5.2,13.3,10.4,18.1
			c5.9,5.4,13.5,8.2,21.4,8.8c1.2,0.1,2.3,0.1,3.5,0.1c1,0,1-1.5,0-1.5c-7.8,0-15.7-2.1-21.9-6.9c-5.4-4.2-9.2-10.1-11.2-16.6
			c-3.9-12.9-0.8-28.2,9.3-37.5c6.5-6,15.2-8.6,23.9-8.6C341.5,1.7,341.5,0.2,340.6,0.2L340.6,0.2z"/>
	</g>
</g>
<g>
	<g>
		<path d="M322.9,73.3c7.8,0,15.7,2.1,21.9,6.9c5.4,4.2,9.2,10.1,11.2,16.6c3.9,12.9,0.8,28.2-9.3,37.5c-6.5,6-15.2,8.6-23.9,8.6
			c-1,0-1,1.5,0,1.5c8.1,0,16.2-2.2,22.8-7.2c5.7-4.4,9.7-10.6,11.8-17.4c2.1-6.8,2.3-14.1,0.7-21c-1.6-6.9-5.2-13.3-10.4-18.1
			c-5.9-5.4-13.5-8.2-21.4-8.8c-1.2-0.1-2.3-0.1-3.5-0.1C321.9,71.8,321.9,73.3,322.9,73.3L322.9,73.3z"/>
	</g>
</g>
<g>
	<g>
		<path d="M327.2,73.3c7.8,0,15.7,2.1,21.9,6.9c5.4,4.2,9.2,10.1,11.2,16.6c3.9,12.9,0.8,28.2-9.3,37.5c-6.5,6-15.2,8.6-23.9,8.6
			c-1,0-1,1.5,0,1.5c8.1,0,16.2-2.2,22.8-7.2c5.7-4.4,9.7-10.6,11.8-17.4c2.1-6.8,2.3-14.1,0.7-21c-1.6-6.9-5.2-13.3-10.4-18.1
			c-5.9-5.4-13.5-8.2-21.4-8.8c-1.2-0.1-2.3-0.1-3.5-0.1C326.2,71.8,326.2,73.3,327.2,73.3L327.2,73.3z"/>
	</g>
</g>
<g>
	<g>
		<path d="M331.5,73.3c7.8,0,15.7,2.1,21.9,6.9c5.4,4.2,9.2,10.1,11.2,16.6c3.9,12.9,0.8,28.2-9.3,37.5c-6.5,6-15.2,8.6-23.9,8.6
			c-1,0-1,1.5,0,1.5c8.1,0,16.2-2.2,22.8-7.2c5.7-4.4,9.7-10.6,11.8-17.4c2.1-6.8,2.3-14.1,0.7-21c-1.6-6.9-5.2-13.3-10.4-18.1
			c-5.9-5.4-13.5-8.2-21.4-8.8c-1.2-0.1-2.3-0.1-3.5-0.1C330.6,71.8,330.6,73.3,331.5,73.3L331.5,73.3z"/>
	</g>
</g>
<g>
	<g>
		<path d="M335.9,73.3c7.8,0,15.7,2.1,21.9,6.9c5.4,4.2,9.2,10.1,11.2,16.6c3.9,12.9,0.8,28.2-9.3,37.5c-6.5,6-15.2,8.6-23.9,8.6
			c-1,0-1,1.5,0,1.5c8.1,0,16.2-2.2,22.8-7.2c5.7-4.4,9.7-10.6,11.8-17.4c2.1-6.8,2.3-14.1,0.7-21c-1.6-6.9-5.2-13.3-10.4-18.1
			c-5.9-5.4-13.5-8.2-21.4-8.8c-1.2-0.1-2.3-0.1-3.5-0.1C334.9,71.8,334.9,73.3,335.9,73.3L335.9,73.3z"/>
	</g>
</g>
<g>
	<g>
		<path d="M340.2,73.3c7.8,0,15.7,2.1,21.9,6.9c5.4,4.2,9.2,10.1,11.2,16.6c3.9,12.9,0.8,28.2-9.3,37.5c-6.5,6-15.2,8.6-23.9,8.6
			c-1,0-1,1.5,0,1.5c8.1,0,16.2-2.2,22.8-7.2c5.7-4.4,9.7-10.6,11.8-17.4c2.1-6.8,2.3-14.1,0.7-21c-1.6-6.9-5.2-13.3-10.4-18.1
			c-5.9-5.4-13.5-8.2-21.4-8.8c-1.2-0.1-2.3-0.1-3.5-0.1C339.3,71.8,339.3,73.3,340.2,73.3L340.2,73.3z"/>
	</g>
</g>
<g>
	<g>
		<path d="M475.3,0.2c-8.1,0-16.2,2.2-22.8,7.2c-5.7,4.4-9.7,10.6-11.8,17.4c-2.1,6.8-2.3,14.1-0.7,21c1.6,6.9,5.2,13.3,10.4,18.1
			c5.9,5.4,13.5,8.2,21.4,8.8c1.2,0.1,2.3,0.1,3.5,0.1c1,0,1-1.5,0-1.5c-7.8,0-15.7-2.1-21.9-6.9c-5.4-4.2-9.2-10.1-11.2-16.6
			c-3.9-12.9-0.8-28.2,9.3-37.5c6.5-6,15.2-8.6,23.9-8.6C476.3,1.7,476.3,0.2,475.3,0.2L475.3,0.2z"/>
	</g>
</g>
<g>
	<g>
		<path d="M479.6,0.2c-8.1,0-16.2,2.2-22.8,7.2c-5.7,4.4-9.7,10.6-11.8,17.4c-2.1,6.8-2.3,14.1-0.7,21c1.6,6.9,5.2,13.3,10.4,18.1
			c5.9,5.4,13.5,8.2,21.4,8.8c1.2,0.1,2.3,0.1,3.5,0.1c1,0,1-1.5,0-1.5c-7.8,0-15.7-2.1-21.9-6.9c-5.4-4.2-9.2-10.1-11.2-16.6
			c-3.9-12.9-0.8-28.2,9.3-37.5c6.5-6,15.2-8.6,23.9-8.6C480.6,1.7,480.6,0.2,479.6,0.2L479.6,0.2z"/>
	</g>
</g>
<g>
	<g>
		<path d="M484,0.2c-8.1,0-16.2,2.2-22.8,7.2c-5.7,4.4-9.7,10.6-11.8,17.4c-2.1,6.8-2.3,14.1-0.7,21c1.6,6.9,5.2,13.3,10.4,18.1
			c5.9,5.4,13.5,8.2,21.4,8.8c1.2,0.1,2.3,0.1,3.5,0.1c1,0,1-1.5,0-1.5c-7.8,0-15.7-2.1-21.9-6.9c-5.4-4.2-9.2-10.1-11.2-16.6
			c-3.9-12.9-0.8-28.2,9.3-37.5c6.5-6,15.2-8.6,23.9-8.6C484.9,1.7,484.9,0.2,484,0.2L484,0.2z"/>
	</g>
</g>
<g>
	<g>
		<path d="M488.3,0.2c-8.1,0-16.2,2.2-22.8,7.2c-5.7,4.4-9.7,10.6-11.8,17.4c-2.1,6.8-2.3,14.1-0.7,21c1.6,6.9,5.2,13.3,10.4,18.1
			c5.9,5.4,13.5,8.2,21.4,8.8c1.2,0.1,2.3,0.1,3.5,0.1c1,0,1-1.5,0-1.5c-7.8,0-15.7-2.1-21.9-6.9c-5.4-4.2-9.2-10.1-11.2-16.6
			c-3.9-12.9-0.8-28.2,9.3-37.5c6.5-6,15.2-8.6,23.9-8.6C489.3,1.7,489.3,0.2,488.3,0.2L488.3,0.2z"/>
	</g>
</g>
<g>
	<g>
		<path d="M492.7,0.2c-8.1,0-16.2,2.2-22.8,7.2c-5.7,4.4-9.7,10.6-11.8,17.4c-2.1,6.8-2.3,14.1-0.7,21c1.6,6.9,5.2,13.3,10.4,18.1
			c5.9,5.4,13.5,8.2,21.4,8.8c1.2,0.1,2.3,0.1,3.5,0.1c1,0,1-1.5,0-1.5c-7.8,0-15.7-2.1-21.9-6.9c-5.4-4.2-9.2-10.1-11.2-16.6
			c-3.9-12.9-0.8-28.2,9.3-37.5c6.5-6,15.2-8.6,23.9-8.6C493.6,1.7,493.6,0.2,492.7,0.2L492.7,0.2z"/>
	</g>
</g>
<g>
	<g>
		<path d="M475,73.3c7.8,0,15.7,2.1,21.9,6.9c5.4,4.2,9.2,10.1,11.2,16.6c3.9,12.9,0.8,28.2-9.3,37.5c-6.5,6-15.2,8.6-23.9,8.6
			c-1,0-1,1.5,0,1.5c8.1,0,16.2-2.2,22.8-7.2c5.7-4.4,9.7-10.6,11.8-17.4c2.1-6.8,2.3-14.1,0.7-21c-1.6-6.9-5.2-13.3-10.4-18.1
			c-5.9-5.4-13.5-8.2-21.4-8.8c-1.2-0.1-2.3-0.1-3.5-0.1C474,71.8,474,73.3,475,73.3L475,73.3z"/>
	</g>
</g>
<g>
	<g>
		<path d="M479.3,73.3c7.8,0,15.7,2.1,21.9,6.9c5.4,4.2,9.2,10.1,11.2,16.6c3.9,12.9,0.8,28.2-9.3,37.5c-6.5,6-15.2,8.6-23.9,8.6
			c-1,0-1,1.5,0,1.5c8.1,0,16.2-2.2,22.8-7.2c5.7-4.4,9.7-10.6,11.8-17.4c2.1-6.8,2.3-14.1,0.7-21c-1.6-6.9-5.2-13.3-10.4-18.1
			c-5.9-5.4-13.5-8.2-21.4-8.8c-1.2-0.1-2.3-0.1-3.5-0.1C478.3,71.8,478.3,73.3,479.3,73.3L479.3,73.3z"/>
	</g>
</g>
<g>
	<g>
		<path d="M483.6,73.3c7.8,0,15.7,2.1,21.9,6.9c5.4,4.2,9.2,10.1,11.2,16.6c3.9,12.9,0.8,28.2-9.3,37.5c-6.5,6-15.2,8.6-23.9,8.6
			c-1,0-1,1.5,0,1.5c8.1,0,16.2-2.2,22.8-7.2c5.7-4.4,9.7-10.6,11.8-17.4c2.1-6.8,2.3-14.1,0.7-21c-1.6-6.9-5.2-13.3-10.4-18.1
			c-5.9-5.4-13.5-8.2-21.4-8.8c-1.2-0.1-2.3-0.1-3.5-0.1C482.7,71.8,482.7,73.3,483.6,73.3L483.6,73.3z"/>
	</g>
</g>
<g>
	<g>
		<path d="M488,73.3c7.8,0,15.7,2.1,21.9,6.9c5.4,4.2,9.2,10.1,11.2,16.6c3.9,12.9,0.8,28.2-9.3,37.5c-6.5,6-15.2,8.6-23.9,8.6
			c-1,0-1,1.5,0,1.5c8.1,0,16.2-2.2,22.8-7.2c5.7-4.4,9.7-10.6,11.8-17.4c2.1-6.8,2.3-14.1,0.7-21c-1.6-6.9-5.2-13.3-10.4-18.1
			c-5.9-5.4-13.5-8.2-21.4-8.8c-1.2-0.1-2.3-0.1-3.5-0.1C487,71.8,487,73.3,488,73.3L488,73.3z"/>
	</g>
</g>
<g>
	<g>
		<path d="M492.3,73.3c7.8,0,15.7,2.1,21.9,6.9c5.4,4.2,9.2,10.1,11.2,16.6c3.9,12.9,0.8,28.2-9.3,37.5c-6.5,6-15.2,8.6-23.9,8.6
			c-1,0-1,1.5,0,1.5c8.1,0,16.2-2.2,22.8-7.2c5.7-4.4,9.7-10.6,11.8-17.4c2.1-6.8,2.3-14.1,0.7-21c-1.6-6.9-5.2-13.3-10.4-18.1
			c-5.9-5.4-13.5-8.2-21.4-8.8c-1.2-0.1-2.3-0.1-3.5-0.1C491.4,71.8,491.4,73.3,492.3,73.3L492.3,73.3z"/>
	</g>
</g>
<g>
	<g>
		<path d="M377.4,0.9c0,4.7,0,9.5,0,14.2c0,11.4,0,22.8,0,34.2c0,13.7,0,27.5,0,41.2c0,11.9,0,23.7,0,35.6c0,3.9,0,7.9,0,11.8
			c0,1.8-0.1,3.7,0,5.6c0,0.1,0,0.2,0,0.2c0,1,1.5,1,1.5,0c0-4.7,0-9.5,0-14.2c0-11.4,0-22.8,0-34.2c0-13.7,0-27.5,0-41.2
			c0-11.9,0-23.7,0-35.6c0-3.9,0-7.9,0-11.8c0-1.8,0.1-3.7,0-5.6c0-0.1,0-0.2,0-0.2C378.9,0,377.4,0,377.4,0.9L377.4,0.9z"/>
	</g>
</g>
<g>
	<g>
		<path d="M380.4,0.9c0,4.7,0,9.5,0,14.2c0,11.4,0,22.8,0,34.2c0,13.7,0,27.5,0,41.2c0,11.9,0,23.7,0,35.6c0,3.9,0,7.9,0,11.8
			c0,1.8-0.1,3.7,0,5.6c0,0.1,0,0.2,0,0.2c0,1,1.5,1,1.5,0c0-4.7,0-9.5,0-14.2c0-11.4,0-22.8,0-34.2c0-13.7,0-27.5,0-41.2
			c0-11.9,0-23.7,0-35.6c0-3.9,0-7.9,0-11.8c0-1.8,0.1-3.7,0-5.6c0-0.1,0-0.2,0-0.2C381.9,0,380.4,0,380.4,0.9L380.4,0.9z"/>
	</g>
</g>
<g>
	<g>
		<path d="M381.3,4.5c12.3,0,24.5,0,36.8,0c1.7,0,3.4,0,5.1,0c1,0,1-1.5,0-1.5c-12.3,0-24.5,0-36.8,0c-1.7,0-3.4,0-5.1,0
			C380.3,3,380.3,4.5,381.3,4.5L381.3,4.5z"/>
	</g>
</g>
<g>
	<g>
		<path d="M381.3,1.5c12.3,0,24.5,0,36.8,0c1.7,0,3.4,0,5.1,0c1,0,1-1.5,0-1.5c-12.3,0-24.5,0-36.8,0c-1.7,0-3.4,0-5.1,0
			C380.3,0,380.3,1.5,381.3,1.5L381.3,1.5z"/>
	</g>
</g>
<g>
	<g>
		<path d="M381.3,144.6c12.3,0,24.5,0,36.8,0c1.7,0,3.4,0,5.1,0c1,0,1-1.5,0-1.5c-12.3,0-24.5,0-36.8,0c-1.7,0-3.4,0-5.1,0
			C380.3,143.1,380.3,144.6,381.3,144.6L381.3,144.6z"/>
	</g>
</g>
<g>
	<g>
		<path d="M381.3,141.6c12.3,0,24.5,0,36.8,0c1.7,0,3.4,0,5.1,0c1,0,1-1.5,0-1.5c-12.3,0-24.5,0-36.8,0c-1.7,0-3.4,0-5.1,0
			C380.3,140.1,380.3,141.6,381.3,141.6L381.3,141.6z"/>
	</g>
</g>
<g>
	<g>
		<path d="M381.3,75.5c12.3,0,24.5,0,36.8,0c1.7,0,3.4,0,5.1,0c1,0,1-1.5,0-1.5c-12.3,0-24.5,0-36.8,0c-1.7,0-3.4,0-5.1,0
			C380.3,74,380.3,75.5,381.3,75.5L381.3,75.5z"/>
	</g>
</g>
<g>
	<g>
		<path d="M381.3,72.5c12.3,0,24.5,0,36.8,0c1.7,0,3.4,0,5.1,0c1,0,1-1.5,0-1.5c-12.3,0-24.5,0-36.8,0c-1.7,0-3.4,0-5.1,0
			C380.3,71,380.3,72.5,381.3,72.5L381.3,72.5z"/>
	</g>
</g>
<g>
	<g>
		<path d="M427.4,0.9c0,4.7,0,9.5,0,14.2c0,11.4,0,22.8,0,34.2c0,13.7,0,27.5,0,41.2c0,11.9,0,23.7,0,35.6c0,3.9,0,7.9,0,11.8
			c0,1.8-0.1,3.7,0,5.6c0,0.1,0,0.2,0,0.2c0,1,1.5,1,1.5,0c0-4.7,0-9.5,0-14.2c0-11.4,0-22.8,0-34.2c0-13.7,0-27.5,0-41.2
			c0-11.9,0-23.7,0-35.6c0-3.9,0-7.9,0-11.8c0-1.8,0.1-3.7,0-5.6c0-0.1,0-0.2,0-0.2C428.9,0,427.4,0,427.4,0.9L427.4,0.9z"/>
	</g>
</g>
<g>
	<g>
		<path d="M430.4,0.9c0,4.7,0,9.5,0,14.2c0,11.4,0,22.8,0,34.2c0,13.7,0,27.5,0,41.2c0,11.9,0,23.7,0,35.6c0,3.9,0,7.9,0,11.8
			c0,1.8-0.1,3.7,0,5.6c0,0.1,0,0.2,0,0.2c0,1,1.5,1,1.5,0c0-4.7,0-9.5,0-14.2c0-11.4,0-22.8,0-34.2c0-13.7,0-27.5,0-41.2
			c0-11.9,0-23.7,0-35.6c0-3.9,0-7.9,0-11.8c0-1.8,0.1-3.7,0-5.6c0-0.1,0-0.2,0-0.2C431.9,0,430.4,0,430.4,0.9L430.4,0.9z"/>
	</g>
</g>
<g>
	<g>
		<path d="M431.3,4.5c1,0,1-1.5,0-1.5C430.4,3,430.4,4.5,431.3,4.5L431.3,4.5z"/>
	</g>
</g>
<g>
	<g>
		<path d="M431.3,1.5c1,0,1-1.5,0-1.5C430.4,0,430.4,1.5,431.3,1.5L431.3,1.5z"/>
	</g>
</g>
<g>
	<g>
		<path d="M431.3,144.6c12.3,0,24.5,0,36.8,0c1.7,0,3.4,0,5.1,0c1,0,1-1.5,0-1.5c-12.3,0-24.5,0-36.8,0c-1.7,0-3.4,0-5.1,0
			C430.4,143.1,430.4,144.6,431.3,144.6L431.3,144.6z"/>
	</g>
</g>
<g>
	<g>
		<path d="M431.3,141.6c12.3,0,24.5,0,36.8,0c1.7,0,3.4,0,5.1,0c1,0,1-1.5,0-1.5c-12.3,0-24.5,0-36.8,0c-1.7,0-3.4,0-5.1,0
			C430.4,140.1,430.4,141.6,431.3,141.6L431.3,141.6z"/>
	</g>
</g>
<g>
	<g>
		<path d="M431.3,75.5c1,0,1-1.5,0-1.5C430.4,74,430.4,75.5,431.3,75.5L431.3,75.5z"/>
	</g>
</g>
<g>
	<g>
		<path d="M431.3,72.5c1,0,1-1.5,0-1.5C430.4,71,430.4,72.5,431.3,72.5L431.3,72.5z"/>
	</g>
</g>
</svg>
